<?xml version="1.0" encoding="UTF-8"?>
<svg id="Layer_1" data-name="Layer 1" xmlns="http://www.w3.org/2000/svg" viewBox="0 0 500 500">
  <defs>
    <style>
      .cls-1 {
        fill: #771213;
      }

      .cls-1, .cls-2, .cls-3 {
        fill-rule: evenodd;
      }

      .cls-2 {
        fill: #d32027;
      }

      .cls-3 {
        fill: #ee3734;
      }
    </style>
  </defs>
  <path class="cls-2" d="m184.01,382.66v-.12l-64.01-36.03v73.99l130.5,74.07v-74.61l-66.48-37.29Zm28.31-111.59l-88.32-50.8-.03-.02-3.97-2.28v75.3l64.01,36.26v-.18l66.48,37.84v-74.61l-38.17-21.51Zm-91.38-95.73l-.94,21.1,111.09,63.81,19.15,11,.26-.15v-22.03l-129.56-73.73Zm-83.67-48.23v21.8l64.94,37.3v-21.69l-64.94-37.42Zm0,43.27v202.27l64.01,36.77v-202.22l-64.01-36.82Z"/>
  <path class="cls-1" d="m461.73,127.34l-.21.12-.73.42c-11.2,6.43-63.04,36.17-62.7,36.37v21.29l.68.38,63.35-36.38v-22.43l-.38.22Zm-82.35,47.64c-.72,0-101.46,58.25-124.89,71.8l-.54.31-.77.44-.7.4-.23.13-.82.47-.95.55v22.03l18.34-10.53,110.55-63.52v-22.09h0Z"/>
  <polygon class="cls-1" points="462.11 245.63 462.11 298.4 462.12 298.4 462.12 373 250.5 494.56 250.5 419.95 398.1 335.17 398.1 282.4 352.33 308.68 250.5 367.19 250.5 292.58 287.49 271.33 462.12 171.02 462.12 245.62 462.11 245.63"/>
  <path class="cls-3" d="m83.23,100.72l-45.96,26.4,64.94,37.42,45.96-26.52-64.94-37.31ZM250.42,4.67L101.96,89.95c55.68,32.03,111.5,63.81,167.05,96.05l-18.65,10.73c-27.86-15.94-55.66-31.96-83.49-47.97l-45.94,26.58,129.56,73.73.95-.55.82-.47.23-.13.7-.4.77-.44.54-.31,124.89-71.8c-49.09-28.42-98.46-56.74-147.64-84.99l18.58-10.7c49.36,27.98,98.77,56.39,147.77,84.96l62.7-36.37.73-.42.21-.12.38-.22C391.99,85.47,321.04,45.44,250.42,4.67Z"/>
</svg>